<?xml version="1.0"?>
<svg xmlns="http://www.w3.org/2000/svg" xmlns:xlink="http://www.w3.org/1999/xlink" version="1.1" id="Layer_1" x="0px" y="0px" viewBox="0 0 512.001 512.001" style="enable-background:new 0 0 512.001 512.001;" xml:space="preserve" width="512px" height="512px"><g><g>
	<g>
		<circle cx="250.12" cy="123.445" r="42.113" data-original="#000000" class="active-path" data-old_color="#000000" fill="#CEFE96"/>
	</g>
</g><g>
	<g>
		<path d="M412.171,385.912c-62.514-78.3-57.974-72.967-60.834-75.305l-28.874-117.408l82.86-112.489    c6.656-9.036,4.726-21.757-4.309-28.412c-9.036-6.655-21.757-4.726-28.412,4.309l-83.755,113.706    c-0.414,0.082-0.828,0.17-1.242,0.273c-53.604,13.183-50.278,12.263-52.777,13.231L132.16,79.297    c-7.864-8.005-20.729-8.121-28.736-0.256c-8.006,7.864-8.121,20.73-0.256,28.736l116.658,118.758l32.267,131.205l-9.407,33.301    l-82.095-14.531c-13.26-2.341-25.913,6.5-28.26,19.761c-2.346,13.26,6.5,25.913,19.761,28.26l103.814,18.375    c12.34,2.183,24.313-5.339,27.715-17.383c23.298-82.477,21.824-76.696,22.167-79.802l10.037-2.469    c1.019,1.487-3.123-3.765,45.621,57.286l-61.276,71.168c-8.787,10.205-7.637,25.601,2.568,34.388    c10.206,8.789,25.603,7.635,34.388-2.568l74.469-86.491C419.244,408.15,419.487,395.076,412.171,385.912z" data-original="#000000" class="active-path" data-old_color="#000000" fill="#CEFE96"/>
	</g>
</g><g>
	<g>
		<path d="M479.159,87.55c-5.676,0-10.549,3.409-12.705,8.286c-2.156-4.878-7.029-8.286-12.705-8.286    c-7.673,0-13.894,6.221-13.894,13.894c0,15.06,19.27,30.224,25.006,34.404c0.95,0.693,2.236,0.692,3.186-0.001    c5.738-4.182,25.005-19.345,25.005-34.403C493.053,93.771,486.832,87.55,479.159,87.55z" data-original="#000000" class="active-path" data-old_color="#000000" fill="#CEFE96"/>
	</g>
</g><g>
	<g>
		<path d="M117.822,188.713c-5.676,0-10.549,3.409-12.705,8.286c-2.156-4.878-7.029-8.286-12.705-8.286    c-7.673,0-13.894,6.22-13.894,13.894c0,15.06,19.27,30.224,25.006,34.404c0.95,0.693,2.236,0.692,3.186-0.001    c5.739-4.182,25.005-19.345,25.005-34.403C131.715,194.932,125.495,188.713,117.822,188.713z" data-original="#000000" class="active-path" data-old_color="#000000" fill="#CEFE96"/>
	</g>
</g><g>
	<g>
		<path d="M50.621,103.015c-4.575,0-8.501,2.746-10.239,6.677c-1.737-3.931-5.665-6.677-10.239-6.677    c-6.183,0-11.196,5.012-11.196,11.196c0,12.135,15.528,24.355,20.151,27.725c0.765,0.558,1.802,0.557,2.568-0.001    c4.624-3.37,20.15-15.589,20.15-27.724C61.816,108.027,56.804,103.015,50.621,103.015z" data-original="#000000" class="active-path" data-old_color="#000000" fill="#CEFE96"/>
	</g>
</g><g>
	<g>
		<path d="M136.79,0c-4.575,0-8.501,2.746-10.239,6.677C124.813,2.746,120.886,0,116.312,0c-6.183,0-11.196,5.012-11.196,11.196    c0.001,12.135,15.53,24.355,20.152,27.724c0.765,0.558,1.802,0.557,2.568-0.001c4.624-3.37,20.15-15.589,20.15-27.724    C147.985,5.012,142.973,0,136.79,0z" data-original="#000000" class="active-path" data-old_color="#000000" fill="#CEFE96"/>
	</g>
</g><g>
	<g>
		<path d="M442.763,4.62c-3.5,0-6.505,2.101-7.833,5.109c-1.33-3.008-4.334-5.109-7.834-5.109c-4.731,0-8.566,3.835-8.566,8.566    c0,9.284,11.881,18.634,15.418,21.212c0.586,0.427,1.379,0.427,1.964-0.001c3.539-2.579,15.417-11.927,15.417-21.211    C451.329,8.456,447.494,4.62,442.763,4.62z" data-original="#000000" class="active-path" data-old_color="#000000" fill="#CEFE96"/>
	</g>
</g><g>
	<g>
		<path d="M328.939,34.717c-3.5,0-6.505,2.101-7.833,5.109c-1.33-3.008-4.334-5.109-7.834-5.109c-4.731,0-8.566,3.835-8.566,8.566    c0.001,9.285,11.881,18.635,15.418,21.212c0.586,0.427,1.379,0.427,1.964-0.001c3.538-2.578,15.417-11.927,15.417-21.211    C337.505,38.553,333.67,34.717,328.939,34.717z" data-original="#000000" class="active-path" data-old_color="#000000" fill="#CEFE96"/>
	</g>
</g></g> </svg>
